<svg width="64" height="49" fill="none" xmlns="http://www.w3.org/2000/svg"><path d="M21.297 28.666c3.7 4.379 9.11 8.198 14.912 8.33 1.607-4.256 1.799-9.364 1.497-13.518-.507-6.98-5.416-15.952-13.766-14.157-9.405 2.021-7.129 14.037-2.643 19.345zM35.092 11.6c5.32 5.675 6.277 16.925 3.163 25.289a13.14 13.14 0 001.618-.306C53.7 32.97 55.963 16.567 56.691 4.608a1.02 1.02 0 01.105-.386l-.163-.238a25.543 25.543 0 01-3.109 6.322c-.68 1.014-2.33.09-1.646-.929 1.646-2.453 2.766-4.934 3.496-7.807.218-.86 1.276-.885 1.731-.245a93.966 93.966 0 016.55 10.634c.572 1.084-.962 1.98-1.635.966l-3.638-5.483c-.944 11.773-3.697 25.069-15.655 30.143a15.155 15.155 0 01-5.263 1.17c-1.164 2.452-2.718 4.564-4.66 6.074C20.951 54.044 6.352 44.735.356 33.534c-.45-.839.774-1.566 1.276-.755C7.9 42.912 22.704 53.131 33.291 41.858c.867-.923 1.574-1.985 2.159-3.136-9.385-.687-18.837-8.852-19.997-18.11C13.958 8.68 27.175 3.152 35.093 11.6z" fill="#8DD9E5"/><path d="M21.297 28.666c3.7 4.379 9.11 8.198 14.912 8.33 1.607-4.256 1.799-9.364 1.497-13.518-.507-6.98-5.416-15.952-13.766-14.157-9.405 2.021-7.129 14.037-2.643 19.345zM35.092 11.6c5.32 5.675 6.277 16.925 3.163 25.289a13.14 13.14 0 001.618-.306C53.7 32.97 55.963 16.567 56.691 4.608a1.02 1.02 0 01.105-.386l-.163-.238a25.543 25.543 0 01-3.109 6.322c-.68 1.014-2.33.09-1.646-.929 1.646-2.453 2.766-4.934 3.496-7.807.218-.86 1.276-.885 1.731-.245a93.966 93.966 0 016.55 10.634c.572 1.084-.962 1.98-1.635.966l-3.638-5.483c-.944 11.773-3.697 25.069-15.655 30.143a15.155 15.155 0 01-5.263 1.17c-1.164 2.452-2.718 4.564-4.66 6.074C20.951 54.044 6.352 44.735.356 33.534c-.45-.839.774-1.566 1.276-.755C7.9 42.912 22.704 53.131 33.291 41.858c.867-.923 1.574-1.985 2.159-3.136-9.385-.687-18.837-8.852-19.997-18.11C13.958 8.68 27.175 3.152 35.093 11.6z" fill="#5879E8"/></svg>