<svg width="768" height="450" viewBox="0 0 768 450" fill="none" xmlns="http://www.w3.org/2000/svg">
<path d="M631 0.500528C691.514 2.29224 766.5 11.0005 766.5 11.0005H767.75V402.25C715.5 402.25 685.25 402.25 632.75 404.75C580.25 407.25 550.5 411.25 497.25 417.75C444 424.25 315.75 440.5 315.75 440.5C254.75 446.75 220.257 449.835 157.75 449.75C95.2427 449.665 60.25 448.5 0 439V48.5C75.957 45.7663 113 48.5 194.5 41.5C276 34.5 286.5 31 347.5 22.5C408.5 14 414.5 13.5 466 8.00001C517.5 2.50007 570.486 -1.29119 631 0.500528Z" fill="#5879E8"/>
<path d="M132.25 45.25C85.75 47.75 51.5 48 0.25 48V10.5C26 6.5 41.25 5.75 67.5 4.00002C93.75 2.25005 114.75 0.249977 146.25 0.25H146.252C177.751 0.250023 199.251 0.250039 232.25 2.5C265.25 4.75 277.25 6.25 303.5 8.75C329.75 11.25 380.75 17.5 380.75 17.5L252.5 34.75C204.75 39 178.75 42.75 132.25 45.25Z" fill="#D2DDFF"/>
<path d="M720 403H768V439.75C733.914 444.364 715.875 445.5 682.125 447.625L679.422 447.795C648.284 449.757 646.407 449.875 625.375 449.875C603.75 449.875 589.5 448.625 564.625 448.625C539.75 448.625 530.875 447.25 509.375 445.75C487.875 444.25 483 443.25 467.875 441.625C452.75 440 380.25 432.875 380.25 432.875C380.25 432.875 403.875 430.125 429.5 426.75C455.125 423.375 454.005 423.296 494 418.625C533.995 413.954 544.375 412.75 544.375 412.75C544.375 412.75 580.25 409.5 584.125 409C588 408.5 631.375 405.375 631.375 405.375L678.5 403.625L720 403Z" fill="#D2DDFF"/>
</svg>
