<svg width="320" height="384" viewBox="0 0 320 384" fill="none" xmlns="http://www.w3.org/2000/svg">
<path d="M183 12.5C225.75 6.75 265 2.75 319.25 1.25L319.75 350C301.243 351.691 298.5 352 280.75 354H280.75C263 356 189.453 365.72 128.5 372.75L127.157 372.905C67.2974 379.809 50.377 381.761 0.25 383.25V34.25L75.75 26.25C115.789 21.5401 140.25 18.25 183 12.5Z" fill="#5879E8"/>
<path d="M69.25 26.75L0.25 34.5V0.75L26.75 2.25L58 4.25C58 4.25 81.5 6.5 103 8.75C124.5 11 136.826 12.864 158.5 15.5L108.5 22L69.25 26.75Z" fill="#D2DDFF"/>
<path d="M281.25 354L320 350V382.75H303L280 381.5L253.5 379.25L220.25 375.75L186.75 372L160.25 369L198.75 364L236.25 359.5L281.25 354Z" fill="#D2DDFF"/>
</svg>
