<svg xmlns="http://www.w3.org/2000/svg" xmlns:xlink="http://www.w3.org/1999/xlink"><symbol id="icon-burger"><path d="M0 1h24M0 7h24M0 13h24" stroke="#122659" stroke-width="2"/></symbol><symbol id="icon-copyright" viewBox="0 0 12 12">
<path d="M6 0C9.312 0 12 2.688 12 6C12 9.312 9.312 12 6 12C2.688 12 0 9.312 0 6C0 2.688 2.688 0 6 0ZM6 1.2C3.348 1.2 1.2 3.348 1.2 6C1.2 8.652 3.348 10.8 6 10.8C8.652 10.8 10.8 8.652 10.8 6C10.8 3.348 8.652 1.2 6 1.2ZM6 3C7.092 3 8.0478 3.5838 8.5728 4.4568L7.5444 5.0742C7.38256 4.80435 7.1528 4.58163 6.87804 4.42827C6.60328 4.2749 6.29311 4.19625 5.97847 4.20014C5.66383 4.20403 5.3557 4.29034 5.08482 4.45045C4.81394 4.61057 4.58976 4.8389 4.43464 5.11267C4.27953 5.38645 4.19889 5.69611 4.20077 6.01077C4.20265 6.32543 4.28699 6.6341 4.44537 6.906C4.60375 7.1779 4.83064 7.40353 5.10342 7.56039C5.3762 7.71726 5.68533 7.79987 6 7.8C6.31088 7.8002 6.61651 7.71983 6.88707 7.56673C7.15764 7.41362 7.3839 7.19301 7.5438 6.9264L8.5728 7.5432C8.23561 8.10637 7.72299 8.54338 7.11356 8.78721C6.50412 9.03103 5.83153 9.06821 5.19894 8.89304C4.56635 8.71786 4.00869 8.34001 3.61148 7.81743C3.21428 7.29485 2.99947 6.6564 3 6C3 4.344 4.344 3 6 3Z" fill="#122659"/>
</symbol><symbol id="icon-cross"><path d="M1 1l9 9m9 9l-9-9m0 0l9-9L1 19" stroke="#122947" stroke-width="2"/></symbol><symbol id="icon-fb"><path d="M4 6.9h1.429L6 4.5H4V3.3c0-.618 0-1.2 1.143-1.2H6V.084C5.814.058 5.11 0 4.367 0 2.816 0 1.714.994 1.714 2.82V4.5H0v2.4h1.714V12H4V6.9z" fill="#122659"/></symbol><symbol id="icon-inst"><path d="M6 0c1.63 0 1.834.006 2.473.036.64.03 1.074.13 1.457.279.396.152.73.359 1.063.692.305.3.541.663.692 1.063.148.382.249.818.279 1.457.028.64.036.843.036 2.473s-.006 1.834-.036 2.473c-.03.64-.13 1.074-.279 1.457-.15.4-.386.764-.692 1.063-.3.305-.663.541-1.063.692-.382.148-.818.249-1.457.279C7.833 11.992 7.63 12 6 12s-1.834-.006-2.473-.036c-.64-.03-1.074-.13-1.457-.279-.4-.15-.763-.386-1.063-.692A2.942 2.942 0 01.315 9.93C.166 9.548.066 9.112.036 8.473.008 7.833 0 7.63 0 6s.006-1.834.036-2.473c.03-.64.13-1.074.279-1.457.15-.4.386-.764.692-1.063.3-.305.662-.542 1.063-.692.383-.149.817-.249 1.457-.279C4.167.008 4.37 0 6 0zm0 3a3 3 0 100 6 3 3 0 000-6zm3.9-.15a.75.75 0 10-1.5 0 .75.75 0 001.5 0zM6 4.2a1.8 1.8 0 110 3.6 1.8 1.8 0 010-3.6z" fill="#122659"/></symbol><symbol id="icon-left"><path d="M16 5H1m0 0l4-4M1 5l4 4" stroke="#122659" stroke-width="2" stroke-linecap="round" stroke-linejoin="round"/></symbol><symbol id="icon-logo"><path d="M7.803 18.4c-2.433 0-4.32-.605-5.66-1.814C.82 15.376.115 13.672.026 11.474.01 11.014 0 10.264 0 9.226c0-1.057.009-1.823.026-2.3C.115 4.745.83 3.05 2.17 1.84 3.527.613 5.405 0 7.803 0c1.57 0 2.936.264 4.1.792 1.164.511 2.063 1.218 2.698 2.121.635.886.97 1.891 1.005 3.016v.051a.454.454 0 01-.185.358.573.573 0 01-.37.128h-2.513c-.212 0-.37-.043-.476-.128-.106-.085-.194-.247-.265-.486-.282-1.073-.75-1.823-1.402-2.249-.652-.443-1.525-.664-2.618-.664-2.54 0-3.862 1.371-3.968 4.114-.018.46-.027 1.167-.027 2.121 0 .955.01 1.679.027 2.173.106 2.743 1.428 4.114 3.968 4.114 1.093 0 1.966-.221 2.618-.664.67-.443 1.138-1.193 1.402-2.25.053-.238.132-.4.238-.485.123-.085.291-.128.503-.128h2.512c.16 0 .291.052.397.154a.41.41 0 01.159.383 5.472 5.472 0 01-1.005 3.041c-.635.886-1.534 1.593-2.698 2.121-1.164.511-2.53.767-4.1.767zm11.284-.256a.624.624 0 01-.45-.178.582.582 0 01-.185-.435V.613c0-.187.062-.332.185-.434a.623.623 0 01.45-.179h2.195c.194 0 .344.06.45.179a.532.532 0 01.185.434v16.918c0 .17-.062.315-.185.435-.106.119-.256.178-.45.178h-2.195zm12.263.256c-1.957 0-3.517-.545-4.681-1.636-1.146-1.107-1.755-2.657-1.825-4.65l-.027-.64.027-.638c.088-1.943.705-3.467 1.851-4.575C27.86 5.154 29.411 4.6 31.35 4.6c2.081 0 3.686.613 4.815 1.84 1.146 1.227 1.719 2.862 1.719 4.907v.536c0 .17-.062.316-.185.435a.657.657 0 01-.476.179H28.44v.204c.035.937.3 1.73.794 2.377.51.63 1.207.945 2.09.945 1.04 0 1.877-.391 2.512-1.175.159-.188.282-.307.37-.358.106-.051.256-.077.45-.077h2.275c.158 0 .29.051.396.154a.388.388 0 01.186.332c0 .409-.256.894-.768 1.457-.493.545-1.207 1.022-2.142 1.43-.935.41-2.02.614-3.253.614zm2.937-8.05v-.077c0-1.005-.265-1.814-.794-2.427-.511-.614-1.226-.92-2.143-.92-.916 0-1.63.306-2.142.92-.511.613-.767 1.422-.767 2.427v.077h5.846zm10.781 7.794c-.265 0-.468-.05-.609-.153a1.291 1.291 0 01-.344-.485L39.17 5.648l-.053-.23c0-.154.053-.281.159-.384a.592.592 0 01.423-.178h2.143c.335 0 .564.161.688.485l3.517 8.97 3.518-8.97c.053-.12.133-.23.238-.332a.682.682 0 01.45-.153h2.17c.14 0 .264.06.37.178a.48.48 0 01.184.384.752.752 0 01-.026.23l-4.973 11.858a1.29 1.29 0 01-.343.485c-.142.102-.344.153-.609.153h-1.957zm15.756.256c-1.958 0-3.518-.545-4.682-1.636-1.147-1.107-1.755-2.657-1.825-4.65l-.027-.64.027-.638c.088-1.943.705-3.467 1.851-4.575C57.332 5.154 58.884 4.6 60.824 4.6c2.08 0 3.685.613 4.814 1.84 1.146 1.227 1.719 2.862 1.719 4.907v.536c0 .17-.062.316-.185.435a.657.657 0 01-.476.179h-8.782v.204c.035.937.3 1.73.793 2.377.512.63 1.208.945 2.09.945 1.04 0 1.878-.391 2.513-1.175.159-.188.282-.307.37-.358.106-.051.256-.077.45-.077h2.275c.158 0 .29.051.396.154a.388.388 0 01.186.332c0 .409-.256.894-.767 1.457-.494.545-1.209 1.022-2.143 1.43-.935.41-2.02.614-3.253.614zm2.936-8.05v-.077c0-1.005-.265-1.814-.794-2.427-.511-.614-1.226-.92-2.142-.92-.917 0-1.632.306-2.143.92-.511.613-.767 1.422-.767 2.427v.077h5.846zm7.04 7.794a.623.623 0 01-.45-.178.582.582 0 01-.185-.435V5.494c0-.17.061-.315.185-.434a.584.584 0 01.45-.204h2.142a.66.66 0 01.476.178c.123.12.185.273.185.46v1.048A4.17 4.17 0 0175.19 5.29c.653-.29 1.393-.434 2.222-.434h1.084c.195 0 .344.06.45.178a.533.533 0 01.185.435v1.84c0 .17-.061.315-.185.434-.106.12-.255.18-.45.18h-2.063c-.828 0-1.48.23-1.957.69-.476.46-.714 1.09-.714 1.89v7.028c0 .17-.062.315-.185.435a.657.657 0 01-.476.178h-2.302zm11.347 0a.623.623 0 01-.45-.178.581.581 0 01-.185-.435V.894c0-.187.053-.34.158-.46a.657.657 0 01.477-.178h7.67c2.063 0 3.598.443 4.603 1.328 1.022.87 1.534 2.062 1.534 3.578 0 .886-.23 1.644-.688 2.275-.44.613-.96 1.056-1.56 1.329.74.323 1.357.851 1.851 1.584.511.733.767 1.567.767 2.504 0 1.585-.555 2.863-1.666 3.834-1.094.97-2.636 1.456-4.63 1.456h-7.882zM89.34 7.59c.917 0 1.614-.213 2.09-.639.476-.426.714-.997.714-1.712 0-.733-.238-1.295-.714-1.687-.476-.409-1.173-.613-2.09-.613h-4.153V7.59h4.153zm.265 7.846c.917 0 1.63-.239 2.142-.716.511-.494.767-1.116.767-1.866 0-.766-.255-1.388-.767-1.865-.511-.494-1.225-.741-2.142-.741h-4.418v5.188h4.418zm13.717 2.964c-.9 0-1.729-.17-2.487-.511-.74-.358-1.331-.835-1.772-1.431a3.326 3.326 0 01-.635-1.968c0-1.159.485-2.096 1.455-2.811.97-.716 2.301-1.201 3.994-1.457l3.624-.51v-.538c0-.75-.194-1.311-.582-1.686-.388-.375-1.014-.562-1.878-.562-.582 0-1.058.11-1.428.332a4.394 4.394 0 00-.847.613 20.55 20.55 0 01-.423.435c-.071.204-.203.306-.397.306h-2.037a.645.645 0 01-.423-.153.542.542 0 01-.159-.409c.018-.426.23-.911.635-1.457.424-.545 1.067-1.013 1.931-1.405.864-.392 1.922-.588 3.174-.588 2.081 0 3.598.451 4.55 1.354s1.428 2.087 1.428 3.553v8.024c0 .17-.062.315-.185.435-.106.119-.256.178-.45.178h-2.142a.626.626 0 01-.45-.178.583.583 0 01-.185-.435v-.997c-.388.546-.943.997-1.666 1.355-.706.34-1.587.511-2.645.511zm.899-2.428c.97 0 1.763-.306 2.38-.92.618-.613.926-1.508.926-2.683v-.537l-2.645.41c-1.023.152-1.798.4-2.327.74-.512.341-.768.758-.768 1.252 0 .546.239.972.715 1.278.476.307 1.049.46 1.719.46zm17.835 2.428c-1.816 0-3.227-.605-4.232-1.814v.945a.58.58 0 01-.185.435c-.106.119-.256.178-.45.178H115.1a.624.624 0 01-.45-.178.583.583 0 01-.185-.435V.613c0-.187.062-.332.185-.434A.624.624 0 01115.1 0h2.248c.194 0 .344.06.45.179a.534.534 0 01.185.434v5.674c1.005-1.125 2.363-1.687 4.073-1.687 1.781 0 3.148.562 4.1 1.687.952 1.124 1.464 2.58 1.534 4.37.018.204.027.477.027.817 0 .358-.009.64-.027.844-.07 1.84-.582 3.314-1.534 4.42-.952 1.108-2.319 1.662-4.1 1.662zm-.978-2.734c1.904 0 2.918-1.133 3.042-3.4.017-.17.026-.425.026-.766 0-.34-.009-.596-.026-.767-.124-2.266-1.138-3.399-3.042-3.399-.988 0-1.746.307-2.275.92-.511.597-.785 1.32-.82 2.173l-.026.97.026.997c.053.92.326 1.696.82 2.326.494.63 1.252.946 2.275.946zm11.5 7.334a.516.516 0 01-.37-.153.482.482 0 01-.159-.358c0-.153.036-.29.106-.409l2.063-4.728-5.078-11.576a.934.934 0 01-.106-.358.614.614 0 01.185-.384.509.509 0 01.397-.178h2.142c.335 0 .574.161.715.485l3.518 8.357 3.623-8.357c.141-.324.379-.485.714-.485h2.117c.141 0 .264.05.37.153a.455.455 0 01.185.358.996.996 0 01-.106.409l-7.485 16.738c-.159.324-.406.486-.741.486h-2.09z" fill="#122659"/></symbol><symbol id="icon-play"><circle cx="25.5" cy="25.5" r="25" stroke="#F4C752"/><circle cx="25.5" cy="25.5" r="21.5" fill="#F4C752"/><path d="M33 25.5L21 17v17l12-8.5z" fill="#FDFAF5" stroke="#FDFAF5"/></symbol><symbol id="icon-right"><path d="M1 5h15m0 0l-4 4m4-4l-4-4" stroke="#122659" stroke-width="2" stroke-linecap="round" stroke-linejoin="round"/></symbol><symbol id="icon-rub"><path d="M1.796 14v-2.667H0V10.06h1.796V8.314H0v-1.49h1.796V0h3.88c1.802 0 3.136.346 4.003 1.04C10.56 1.731 11 2.738 11 4.058c0 1.333-.475 2.379-1.424 3.137-.95.745-2.346 1.118-4.19 1.118H3.653v1.745h3.405v1.274H3.653V14H1.796zm1.857-7.176h1.465c1.252 0 2.222-.197 2.91-.589.702-.392 1.053-1.098 1.053-2.117 0-.89-.29-1.55-.867-1.98-.578-.432-1.48-.648-2.704-.648H3.653v5.334z" fill="#122947"/></symbol><symbol id="icon-tel"><path d="M11.404 9.923c-.49-.484-1.102-.484-1.589 0-.371.368-.743.736-1.108 1.111-.1.103-.184.125-.306.056-.24-.13-.496-.237-.727-.38-1.077-.678-1.98-1.549-2.778-2.529-.397-.487-.75-1.008-.996-1.595-.05-.119-.04-.197.056-.293.372-.36.734-.728 1.1-1.096.508-.512.508-1.111-.004-1.626-.29-.294-.58-.58-.87-.874-.3-.3-.597-.603-.9-.9-.49-.477-1.102-.477-1.589.004C1.32 2.169.96 2.547.58 2.909a1.81 1.81 0 00-.568 1.22c-.06.778.131 1.511.4 2.226.549 1.48 1.385 2.794 2.4 3.998a14.854 14.854 0 004.92 3.85c.86.417 1.753.739 2.724.792.668.038 1.249-.131 1.714-.652.318-.356.677-.68 1.014-1.021.5-.506.503-1.117.006-1.617-.593-.596-1.189-1.19-1.785-1.782zm-.597-2.488l1.152-.197A5.147 5.147 0 0010.52 4.46a5.12 5.12 0 00-2.934-1.463l-.162 1.158a3.972 3.972 0 012.272 1.133c.587.586.971 1.33 1.111 2.147zm1.802-5.007A8.493 8.493 0 007.739 0l-.162 1.158a7.364 7.364 0 014.208 2.098 7.359 7.359 0 012.063 3.98L15 7.038a8.555 8.555 0 00-2.391-4.61z" fill="#122659"/></symbol><symbol id="icon-vk"><path fill-rule="evenodd" clip-rule="evenodd" d="M6.85 7.967h.836s.253-.028.382-.168c.12-.128.115-.368.115-.368s-.016-1.125.505-1.29c.514-.163 1.174 1.087 1.873 1.568.528.363.93.284.93.284l1.87-.026s.978-.06.514-.831c-.038-.063-.27-.57-1.39-1.611-1.172-1.09-1.015-.914.397-2.8.86-1.147 1.204-1.848 1.096-2.148-.102-.286-.735-.21-.735-.21l-2.105.012s-.156-.021-.271.048a.59.59 0 00-.186.227s-.333.888-.778 1.644c-.937 1.594-1.312 1.678-1.465 1.58-.357-.231-.268-.928-.268-1.422C8.17.91 8.404.266 7.715.1 7.486.044 7.318.008 6.732.002c-.75-.008-1.386.002-1.746.179-.24.117-.425.379-.312.394.139.019.454.085.621.313.216.294.208.954.208.954s.124 1.819-.29 2.045c-.283.155-.672-.161-1.508-1.608-.428-.74-.751-1.56-.751-1.56S2.89.566 2.78.484c-.135-.099-.323-.13-.323-.13l-2 .013S.155.375.045.506C-.052.622.038.863.038.863s1.566 3.67 3.34 5.52C5.002 8.077 6.85 7.966 6.85 7.966z" fill="#122659"/></symbol><symbol id="mask-booking-desktop" viewBox="0 0 1366 455">
<path d="M1366 421V67L1273.5 46.75L1210.5 33.5L1140.5 21.75L1089.5 14L1035 7.75C1035 7.75 999.602 5.17163 977 4.00005C954.398 2.82848 919.25 1.75 919.25 1.75L837.25 4L751.5 10.5L671 20.75L568.75 33.75L461.5 43.5L349.5 48.25H239L176.5 45.5L86 41L0 33.75V388.25L75.25 404.75L160.5 422L245 436L302 445L362 450.5L421.5 453H481L579 448L627 442.5L678.5 436.5L778.5 424L870 413.5C870 413.5 912 410 926.5 410C941 410 1013 405.5 1045.5 405.5H1124.5C1142 405.5 1196 410 1196 410L1284 415L1366 421Z" fill="#5879E8" stroke="#5879E8"/>
<path d="M544 4.00026C599.75 6.50019 631 13.5003 677 19.0003C597.821 27.8846 553.75 36.25 474.25 41.75C394.75 47.25 364.25 48 294.5 48C225 48 114.75 42 114.75 42C158.25 32.75 186.25 27 239.25 18.75C292.25 10.5 333.75 6.75004 396.75 2.75026C459.75 -1.24952 488.25 1.50032 544 4.00026Z" fill="#D2DDFF"/>
<path d="M114.75 42C158.25 32.75 186.25 27 239.25 18.75C292.25 10.5 333.75 6.75004 396.75 2.75026C459.75 -1.24952 488.25 1.50032 544 4.00026C599.75 6.50019 631 13.5003 677 19.0003C597.821 27.8846 553.75 36.25 474.25 41.75C394.75 47.25 364.25 48 294.5 48M114.75 42C114.75 42 225 48 294.5 48M114.75 42L294.5 48" stroke="#D2DDFF"/>
<path d="M1366 34L1250.25 41.375L1308.5 53.875L1366 66.5V34Z" fill="#D2DDFF"/>
<path d="M0.25 388.625L112.75 412.75L0.25 420.875V388.625Z" fill="#D2DDFF"/>
<path d="M1366 34L1250.25 41.375L1308.5 53.875L1366 66.5V34Z" stroke="#D2DDFF"/>
<path d="M0.25 388.625L112.75 412.75L0.25 420.875V388.625Z" stroke="#D2DDFF"/>
<path d="M1176.75 409.125C1208.38 411.125 1222.49 411.852 1249.88 413.75L1204.5 422.625C1174.25 428.25 1157.38 431.125 1127.38 435.75C1097.38 440.375 1062.62 444.375 1021.38 448.75C980.125 453.125 959.875 452.625 921 453.75C882.125 454.875 865.5 452.625 830.375 451.25C795.25 449.875 791.625 448.875 766.875 445.875C742.125 442.875 714.46 440.39 680.875 436.875C680.875 436.875 737.625 428.75 774.75 425.25C811.875 421.75 838.875 417.375 882 413.375C925.125 409.375 946.5 409.25 990.375 408C1034.25 406.75 1055.25 406.25 1097.25 406.25C1139.25 406.25 1145.12 407.125 1176.75 409.125Z" fill="#D2DDFF" stroke="#D2DDFF"/>
</symbol><symbol id="mask-booking-mobile" viewBox="0 0 320 384">
<path d="M183 12.5C225.75 6.75 265 2.75 319.25 1.25L319.75 350C301.243 351.691 298.5 352 280.75 354H280.75C263 356 189.453 365.72 128.5 372.75L127.157 372.905C67.2974 379.809 50.377 381.761 0.25 383.25V34.25L75.75 26.25C115.789 21.5401 140.25 18.25 183 12.5Z" fill="#5879E8"/>
<path d="M69.25 26.75L0.25 34.5V0.75L26.75 2.25L58 4.25C58 4.25 81.5 6.5 103 8.75C124.5 11 136.826 12.864 158.5 15.5L108.5 22L69.25 26.75Z" fill="#D2DDFF"/>
<path d="M281.25 354L320 350V382.75H303L280 381.5L253.5 379.25L220.25 375.75L186.75 372L160.25 369L198.75 364L236.25 359.5L281.25 354Z" fill="#D2DDFF"/>
</symbol><symbol id="mask-booking-tablet" viewBox="0 0 768 450">
<path d="M631 0.500528C691.514 2.29224 766.5 11.0005 766.5 11.0005H767.75V402.25C715.5 402.25 685.25 402.25 632.75 404.75C580.25 407.25 550.5 411.25 497.25 417.75C444 424.25 315.75 440.5 315.75 440.5C254.75 446.75 220.257 449.835 157.75 449.75C95.2427 449.665 60.25 448.5 0 439V48.5C75.957 45.7663 113 48.5 194.5 41.5C276 34.5 286.5 31 347.5 22.5C408.5 14 414.5 13.5 466 8.00001C517.5 2.50007 570.486 -1.29119 631 0.500528Z" fill="#5879E8"/>
<path d="M132.25 45.25C85.75 47.75 51.5 48 0.25 48V10.5C26 6.5 41.25 5.75 67.5 4.00002C93.75 2.25005 114.75 0.249977 146.25 0.25H146.252C177.751 0.250023 199.251 0.250039 232.25 2.5C265.25 4.75 277.25 6.25 303.5 8.75C329.75 11.25 380.75 17.5 380.75 17.5L252.5 34.75C204.75 39 178.75 42.75 132.25 45.25Z" fill="#D2DDFF"/>
<path d="M720 403H768V439.75C733.914 444.364 715.875 445.5 682.125 447.625L679.422 447.795C648.284 449.757 646.407 449.875 625.375 449.875C603.75 449.875 589.5 448.625 564.625 448.625C539.75 448.625 530.875 447.25 509.375 445.75C487.875 444.25 483 443.25 467.875 441.625C452.75 440 380.25 432.875 380.25 432.875C380.25 432.875 403.875 430.125 429.5 426.75C455.125 423.375 454.005 423.296 494 418.625C533.995 413.954 544.375 412.75 544.375 412.75C544.375 412.75 580.25 409.5 584.125 409C588 408.5 631.375 405.375 631.375 405.375L678.5 403.625L720 403Z" fill="#D2DDFF"/>
</symbol><symbol id="mask-desktop"><path d="M1101.5 98.5s206.75-3 263-97.75V98.5H0V73c148.939-34.54 236.544-40.708 397.25-37.375 0 0 117.462 2.128 226.625 17.375C815.972 78.369 919.786 90.337 1101.5 98.5z" fill="#FEFCFA"/></symbol><symbol id="mask-tablet"><path d="M767.5 50.5c-17.408.385-35.154.358-52.984 0H0v-46C-.354-.921 214 1 249.25 3.25S364 14.5 420 23c48.806 7.408 173.567 25.07 294.516 27.5H767.5z" fill="#FEFCFA"/></symbol></svg>