<svg width="111" height="17" fill="none" xmlns="http://www.w3.org/2000/svg"><path d="M6.057 13.6c-1.89 0-3.354-.447-4.394-1.341C.636 11.365.09 10.106.021 8.48A45.56 45.56 0 010 6.82c0-.78.007-1.348.02-1.7.07-1.613.624-2.866 1.665-3.76C2.738.453 4.195 0 6.057 0c1.218 0 2.279.195 3.182.586.904.377 1.602.9 2.095 1.567a3.83 3.83 0 01.78 2.23v.037c0 .1-.048.189-.144.264a.46.46 0 01-.288.095h-1.95c-.164 0-.287-.032-.37-.095-.082-.063-.15-.182-.205-.358-.219-.794-.582-1.348-1.088-1.663-.506-.327-1.184-.49-2.033-.49-1.97 0-2.997 1.013-3.08 3.04-.013.34-.02.863-.02 1.568 0 .705.007 1.24.02 1.606.083 2.027 1.11 3.04 3.08 3.04.849 0 1.527-.163 2.033-.49.52-.328.883-.882 1.088-1.663.041-.176.103-.295.185-.358a.703.703 0 01.39-.095h1.95c.124 0 .226.038.309.113a.3.3 0 01.123.284 3.918 3.918 0 01-.78 2.248c-.493.654-1.191 1.177-2.095 1.567-.903.378-1.964.567-3.182.567zm8.759-.189a.497.497 0 01-.35-.132.42.42 0 01-.143-.321V.453c0-.138.048-.245.143-.32a.497.497 0 01.35-.133h1.704c.15 0 .267.044.349.132a.385.385 0 01.143.321v12.505a.42.42 0 01-.143.32.454.454 0 01-.35.133h-1.703zm9.519.189c-1.52 0-2.73-.403-3.634-1.209-.89-.818-1.362-1.964-1.417-3.438l-.02-.472.02-.472c.069-1.436.548-2.563 1.438-3.381.903-.819 2.107-1.228 3.613-1.228 1.615 0 2.86.453 3.737 1.36.89.907 1.334 2.116 1.334 3.627v.396a.42.42 0 01-.143.321.525.525 0 01-.37.133h-6.816v.15c.027.693.232 1.279.615 1.757.398.466.938.7 1.622.7.808 0 1.458-.29 1.951-.87a1.32 1.32 0 01.287-.264.858.858 0 01.35-.057h1.765c.123 0 .226.038.308.114.096.063.144.145.144.245 0 .302-.198.661-.596 1.077-.383.403-.937.755-1.663 1.058-.725.302-1.567.453-2.525.453zm2.28-5.95v-.057c0-.743-.206-1.34-.617-1.794-.397-.453-.951-.68-1.663-.68-.712 0-1.266.227-1.663.68-.397.453-.595 1.051-.595 1.794v.057h4.537zm8.368 5.761c-.206 0-.363-.038-.473-.113a.958.958 0 01-.267-.36l-3.839-8.764-.041-.17a.37.37 0 01.123-.283.471.471 0 01.329-.132h1.663c.26 0 .438.12.534.359l2.73 6.63 2.731-6.63a.787.787 0 01.185-.246.546.546 0 01.349-.113h1.684c.109 0 .205.044.287.132.096.076.144.17.144.283a.53.53 0 01-.02.17l-3.86 8.765a.957.957 0 01-.268.359c-.11.075-.267.113-.472.113h-1.52zm12.23.189c-1.52 0-2.731-.403-3.635-1.209-.89-.818-1.361-1.964-1.416-3.438l-.02-.472.02-.472c.068-1.436.547-2.563 1.437-3.381.904-.819 2.108-1.228 3.614-1.228 1.615 0 2.86.453 3.736 1.36.89.907 1.335 2.116 1.335 3.627v.396a.42.42 0 01-.144.321.525.525 0 01-.37.133h-6.816v.15c.027.693.233 1.279.616 1.757.397.466.938.7 1.622.7.808 0 1.458-.29 1.95-.87a1.32 1.32 0 01.288-.264.858.858 0 01.35-.057h1.765c.123 0 .226.038.308.114.096.063.143.145.143.245 0 .302-.198.661-.595 1.077-.383.403-.938.755-1.663 1.058-.725.302-1.567.453-2.525.453zm2.279-5.95v-.057c0-.743-.206-1.34-.616-1.794-.397-.453-.952-.68-1.663-.68-.712 0-1.267.227-1.663.68-.397.453-.596 1.051-.596 1.794v.057h4.538zm5.464 5.761a.497.497 0 01-.349-.132.42.42 0 01-.144-.321V4.06a.42.42 0 01.144-.321.464.464 0 01.35-.151h1.662c.15 0 .274.044.37.132a.441.441 0 01.144.34v.775a3.215 3.215 0 011.231-.926c.507-.214 1.082-.321 1.725-.321h.842c.15 0 .267.044.349.132a.385.385 0 01.144.321v1.36a.42.42 0 01-.144.321.454.454 0 01-.35.133h-1.6c-.644 0-1.15.17-1.52.51-.37.34-.554.805-.554 1.397v5.195a.42.42 0 01-.144.32.525.525 0 01-.37.133h-1.786zm8.808 0a.497.497 0 01-.349-.132.42.42 0 01-.144-.321V.66a.48.48 0 01.123-.34.524.524 0 01.37-.132h5.954c1.602 0 2.793.327 3.573.982.794.642 1.19 1.524 1.19 2.645 0 .654-.177 1.215-.533 1.68-.342.454-.746.781-1.211.983a3.29 3.29 0 011.437 1.171 3.05 3.05 0 01.595 1.851c0 1.171-.431 2.116-1.293 2.833-.85.718-2.047 1.077-3.594 1.077h-6.118zM69.35 5.61c.712 0 1.252-.157 1.622-.472.37-.315.554-.737.554-1.266 0-.541-.185-.957-.554-1.246-.37-.303-.91-.454-1.622-.454h-3.224V5.61h3.224zm.205 5.799c.712 0 1.266-.176 1.663-.529.397-.365.596-.825.596-1.379 0-.567-.199-1.026-.596-1.379-.397-.365-.951-.548-1.663-.548h-3.429v3.835h3.429zM80.2 13.6a4.854 4.854 0 01-1.93-.378c-.574-.264-1.033-.617-1.375-1.058a2.38 2.38 0 01-.493-1.454c0-.856.377-1.549 1.13-2.078.752-.529 1.786-.888 3.1-1.076l2.813-.378V6.78c0-.554-.15-.97-.452-1.247-.301-.277-.787-.415-1.458-.415-.451 0-.821.082-1.108.245a3.406 3.406 0 00-.658.454c-.164.163-.273.27-.328.32-.055.152-.157.228-.308.228h-1.58a.516.516 0 01-.33-.114.39.39 0 01-.123-.302c.014-.315.178-.674.493-1.077.329-.403.828-.749 1.499-1.039.67-.29 1.492-.434 2.464-.434 1.615 0 2.792.334 3.531 1.001.74.668 1.109 1.543 1.109 2.626v5.93a.42.42 0 01-.144.322.454.454 0 01-.349.132H84.04a.497.497 0 01-.349-.132.42.42 0 01-.144-.321v-.737c-.3.403-.732.737-1.293 1.001-.548.252-1.232.378-2.053.378zm.699-1.794c.753 0 1.368-.227 1.848-.68.479-.454.718-1.115.718-1.984v-.396l-2.053.302c-.794.113-1.396.296-1.807.548-.397.251-.595.56-.595.925 0 .403.185.718.554.945.37.226.815.34 1.335.34zM94.743 13.6c-1.41 0-2.505-.447-3.285-1.341v.699a.42.42 0 01-.144.32.454.454 0 01-.349.133h-1.622a.497.497 0 01-.349-.132.42.42 0 01-.144-.321V.453c0-.138.048-.245.144-.32a.497.497 0 01.35-.133h1.744c.151 0 .267.044.35.132a.385.385 0 01.143.321v4.194c.78-.831 1.834-1.247 3.162-1.247 1.383 0 2.443.416 3.183 1.247.739.83 1.136 1.907 1.19 3.23.014.15.02.352.02.604 0 .265-.006.472-.02.623-.054 1.36-.451 2.45-1.19 3.268-.74.819-1.8 1.228-3.183 1.228zm-.76-2.021c1.479 0 2.266-.838 2.361-2.512a5.71 5.71 0 00.021-.567c0-.252-.007-.44-.02-.567-.096-1.674-.883-2.512-2.362-2.512-.766 0-1.355.227-1.765.68-.397.44-.61.976-.637 1.606l-.02.717.02.737c.041.68.253 1.253.637 1.719.383.466.971.699 1.765.699zM102.911 17a.412.412 0 01-.288-.113.35.35 0 01-.123-.265c0-.113.027-.214.082-.302l1.601-3.494-3.942-8.557a.683.683 0 01-.082-.265.448.448 0 01.144-.283.404.404 0 01.308-.132h1.663c.26 0 .445.12.554.359l2.731 6.176 2.813-6.176a.566.566 0 01.554-.36h1.643a.41.41 0 01.287.114c.096.076.144.164.144.265a.706.706 0 01-.082.302l-5.811 12.372c-.123.24-.314.359-.574.359h-1.622z" fill="#122659"/></svg>