<svg width="1366" height="455" viewBox="0 0 1366 455" fill="none" xmlns="http://www.w3.org/2000/svg">
<path d="M1366 421V67L1273.5 46.75L1210.5 33.5L1140.5 21.75L1089.5 14L1035 7.75C1035 7.75 999.602 5.17163 977 4.00005C954.398 2.82848 919.25 1.75 919.25 1.75L837.25 4L751.5 10.5L671 20.75L568.75 33.75L461.5 43.5L349.5 48.25H239L176.5 45.5L86 41L0 33.75V388.25L75.25 404.75L160.5 422L245 436L302 445L362 450.5L421.5 453H481L579 448L627 442.5L678.5 436.5L778.5 424L870 413.5C870 413.5 912 410 926.5 410C941 410 1013 405.5 1045.5 405.5H1124.5C1142 405.5 1196 410 1196 410L1284 415L1366 421Z" fill="#5879E8" stroke="#5879E8"/>
<path d="M544 4.00026C599.75 6.50019 631 13.5003 677 19.0003C597.821 27.8846 553.75 36.25 474.25 41.75C394.75 47.25 364.25 48 294.5 48C225 48 114.75 42 114.75 42C158.25 32.75 186.25 27 239.25 18.75C292.25 10.5 333.75 6.75004 396.75 2.75026C459.75 -1.24952 488.25 1.50032 544 4.00026Z" fill="#D2DDFF"/>
<path d="M114.75 42C158.25 32.75 186.25 27 239.25 18.75C292.25 10.5 333.75 6.75004 396.75 2.75026C459.75 -1.24952 488.25 1.50032 544 4.00026C599.75 6.50019 631 13.5003 677 19.0003C597.821 27.8846 553.75 36.25 474.25 41.75C394.75 47.25 364.25 48 294.5 48M114.75 42C114.75 42 225 48 294.5 48M114.75 42L294.5 48" stroke="#D2DDFF"/>
<path d="M1366 34L1250.25 41.375L1308.5 53.875L1366 66.5V34Z" fill="#D2DDFF"/>
<path d="M0.25 388.625L112.75 412.75L0.25 420.875V388.625Z" fill="#D2DDFF"/>
<path d="M1366 34L1250.25 41.375L1308.5 53.875L1366 66.5V34Z" stroke="#D2DDFF"/>
<path d="M0.25 388.625L112.75 412.75L0.25 420.875V388.625Z" stroke="#D2DDFF"/>
<path d="M1176.75 409.125C1208.38 411.125 1222.49 411.852 1249.88 413.75L1204.5 422.625C1174.25 428.25 1157.38 431.125 1127.38 435.75C1097.38 440.375 1062.62 444.375 1021.38 448.75C980.125 453.125 959.875 452.625 921 453.75C882.125 454.875 865.5 452.625 830.375 451.25C795.25 449.875 791.625 448.875 766.875 445.875C742.125 442.875 714.46 440.39 680.875 436.875C680.875 436.875 737.625 428.75 774.75 425.25C811.875 421.75 838.875 417.375 882 413.375C925.125 409.375 946.5 409.25 990.375 408C1034.25 406.75 1055.25 406.25 1097.25 406.25C1139.25 406.25 1145.12 407.125 1176.75 409.125Z" fill="#D2DDFF" stroke="#D2DDFF"/>
</svg>
